<mxfile host="app.diagrams.net" agent="Mozilla/5.0 (Windows NT 10.0; Win64; x64) AppleWebKit/537.36 (KHTML, like Gecko) Chrome/130.0.0.0 Safari/537.36 Edg/130.0.0.0" version="24.8.3">
  <diagram name="Página-1" id="0zwEAk_isAbfg22mW7ZQ">
    <mxGraphModel dx="348" dy="193" grid="1" gridSize="5" guides="1" tooltips="1" connect="1" arrows="1" fold="1" page="1" pageScale="1" pageWidth="827" pageHeight="1169" math="0" shadow="0">
      <root>
        <mxCell id="0" />
        <mxCell id="1" parent="0" />
        <mxCell id="dHt0ZBcLm3qYKbVKPIH8-21" value="" style="edgeStyle=orthogonalEdgeStyle;rounded=0;orthogonalLoop=1;jettySize=auto;html=1;strokeWidth=2;" edge="1" parent="1" source="dHt0ZBcLm3qYKbVKPIH8-1" target="dHt0ZBcLm3qYKbVKPIH8-3">
          <mxGeometry relative="1" as="geometry" />
        </mxCell>
        <mxCell id="dHt0ZBcLm3qYKbVKPIH8-1" value="&lt;font style=&quot;font-size: 18px;&quot; face=&quot;Times New Roman&quot;&gt;Start&lt;/font&gt;" style="ellipse;whiteSpace=wrap;html=1;strokeWidth=2;" vertex="1" parent="1">
          <mxGeometry x="522" y="81" width="76" height="20" as="geometry" />
        </mxCell>
        <mxCell id="dHt0ZBcLm3qYKbVKPIH8-22" value="" style="edgeStyle=orthogonalEdgeStyle;rounded=0;orthogonalLoop=1;jettySize=auto;html=1;strokeWidth=2;" edge="1" parent="1" source="dHt0ZBcLm3qYKbVKPIH8-3" target="dHt0ZBcLm3qYKbVKPIH8-4">
          <mxGeometry relative="1" as="geometry" />
        </mxCell>
        <mxCell id="dHt0ZBcLm3qYKbVKPIH8-3" value="&lt;font style=&quot;font-size: 18px;&quot; face=&quot;Times New Roman&quot;&gt;V&lt;sub&gt;a&lt;/sub&gt;(t), V&lt;sub&gt;b&lt;/sub&gt;(t), V&lt;sub&gt;c&lt;/sub&gt;(t)&lt;/font&gt;" style="shape=cylinder3;whiteSpace=wrap;html=1;boundedLbl=1;backgroundOutline=1;size=15;strokeWidth=2;" vertex="1" parent="1">
          <mxGeometry x="480" y="115" width="160" height="55" as="geometry" />
        </mxCell>
        <mxCell id="dHt0ZBcLm3qYKbVKPIH8-24" value="" style="edgeStyle=orthogonalEdgeStyle;rounded=0;orthogonalLoop=1;jettySize=auto;html=1;strokeWidth=2;" edge="1" parent="1" source="dHt0ZBcLm3qYKbVKPIH8-4" target="dHt0ZBcLm3qYKbVKPIH8-5">
          <mxGeometry relative="1" as="geometry" />
        </mxCell>
        <mxCell id="dHt0ZBcLm3qYKbVKPIH8-4" value="&lt;font face=&quot;Times New Roman&quot; style=&quot;font-size: 18px;&quot;&gt;Modal transformation&lt;/font&gt;" style="rounded=0;whiteSpace=wrap;html=1;strokeWidth=2;" vertex="1" parent="1">
          <mxGeometry x="475" y="185" width="170" height="25" as="geometry" />
        </mxCell>
        <mxCell id="dHt0ZBcLm3qYKbVKPIH8-25" value="" style="edgeStyle=orthogonalEdgeStyle;rounded=0;orthogonalLoop=1;jettySize=auto;html=1;strokeWidth=2;" edge="1" parent="1" source="dHt0ZBcLm3qYKbVKPIH8-5" target="dHt0ZBcLm3qYKbVKPIH8-6">
          <mxGeometry relative="1" as="geometry" />
        </mxCell>
        <mxCell id="dHt0ZBcLm3qYKbVKPIH8-5" value="&lt;font face=&quot;Times New Roman&quot; style=&quot;font-size: 18px;&quot;&gt;Applied EMD to obtain the 1°, 2°, and 3° IMF&lt;/font&gt;" style="rounded=0;whiteSpace=wrap;html=1;strokeWidth=2;" vertex="1" parent="1">
          <mxGeometry x="458.5" y="225" width="203" height="40" as="geometry" />
        </mxCell>
        <mxCell id="dHt0ZBcLm3qYKbVKPIH8-26" value="" style="edgeStyle=orthogonalEdgeStyle;rounded=0;orthogonalLoop=1;jettySize=auto;html=1;strokeWidth=2;" edge="1" parent="1" source="dHt0ZBcLm3qYKbVKPIH8-6" target="dHt0ZBcLm3qYKbVKPIH8-16">
          <mxGeometry relative="1" as="geometry" />
        </mxCell>
        <mxCell id="dHt0ZBcLm3qYKbVKPIH8-6" value="&lt;font face=&quot;Times New Roman&quot; style=&quot;font-size: 18px;&quot;&gt;Applied the Hilbert spectrum in each IMF&lt;/font&gt;" style="rounded=0;whiteSpace=wrap;html=1;strokeWidth=2;" vertex="1" parent="1">
          <mxGeometry x="458.5" y="280" width="203" height="40" as="geometry" />
        </mxCell>
        <mxCell id="dHt0ZBcLm3qYKbVKPIH8-29" style="edgeStyle=orthogonalEdgeStyle;rounded=0;orthogonalLoop=1;jettySize=auto;html=1;entryX=0;entryY=0.5;entryDx=0;entryDy=0;strokeWidth=2;" edge="1" parent="1" source="dHt0ZBcLm3qYKbVKPIH8-7" target="dHt0ZBcLm3qYKbVKPIH8-9">
          <mxGeometry relative="1" as="geometry" />
        </mxCell>
        <mxCell id="dHt0ZBcLm3qYKbVKPIH8-7" value="&lt;font face=&quot;Times New Roman&quot; style=&quot;font-size: 18px;&quot;&gt;Multiple frequences by +1&lt;/font&gt;" style="rounded=0;whiteSpace=wrap;html=1;strokeWidth=2;" vertex="1" parent="1">
          <mxGeometry x="295" y="380" width="203" height="30" as="geometry" />
        </mxCell>
        <mxCell id="dHt0ZBcLm3qYKbVKPIH8-30" style="edgeStyle=orthogonalEdgeStyle;rounded=0;orthogonalLoop=1;jettySize=auto;html=1;entryX=1;entryY=0.5;entryDx=0;entryDy=0;strokeWidth=2;" edge="1" parent="1" source="dHt0ZBcLm3qYKbVKPIH8-8" target="dHt0ZBcLm3qYKbVKPIH8-9">
          <mxGeometry relative="1" as="geometry" />
        </mxCell>
        <mxCell id="dHt0ZBcLm3qYKbVKPIH8-8" value="&lt;font face=&quot;Times New Roman&quot; style=&quot;font-size: 18px;&quot;&gt;Multiple frequences by -1&lt;/font&gt;" style="rounded=0;whiteSpace=wrap;html=1;strokeWidth=2;" vertex="1" parent="1">
          <mxGeometry x="620" y="380" width="203" height="30" as="geometry" />
        </mxCell>
        <mxCell id="dHt0ZBcLm3qYKbVKPIH8-31" value="" style="edgeStyle=orthogonalEdgeStyle;rounded=0;orthogonalLoop=1;jettySize=auto;html=1;strokeWidth=2;" edge="1" parent="1" source="dHt0ZBcLm3qYKbVKPIH8-9" target="dHt0ZBcLm3qYKbVKPIH8-10">
          <mxGeometry relative="1" as="geometry" />
        </mxCell>
        <mxCell id="dHt0ZBcLm3qYKbVKPIH8-9" value="&lt;font face=&quot;Times New Roman&quot; style=&quot;font-size: 18px;&quot;&gt;IMF&lt;sub&gt;res&lt;/sub&gt; = IMF&lt;sub&gt;1&lt;/sub&gt; - (IMF&lt;sub&gt;2&lt;/sub&gt; + IMF&lt;sub&gt;3&lt;/sub&gt;)&lt;/font&gt;" style="rounded=0;whiteSpace=wrap;html=1;strokeWidth=2;" vertex="1" parent="1">
          <mxGeometry x="445" y="420" width="240" height="25" as="geometry" />
        </mxCell>
        <mxCell id="dHt0ZBcLm3qYKbVKPIH8-32" value="" style="edgeStyle=orthogonalEdgeStyle;rounded=0;orthogonalLoop=1;jettySize=auto;html=1;strokeWidth=2;" edge="1" parent="1" source="dHt0ZBcLm3qYKbVKPIH8-10" target="dHt0ZBcLm3qYKbVKPIH8-11">
          <mxGeometry relative="1" as="geometry" />
        </mxCell>
        <mxCell id="dHt0ZBcLm3qYKbVKPIH8-10" value="&lt;font face=&quot;Times New Roman&quot; style=&quot;font-size: 18px;&quot;&gt;Applied the inverse of Hilbert spectrum in IMF&lt;sub&gt;res&lt;/sub&gt;&lt;/font&gt;" style="rounded=0;whiteSpace=wrap;html=1;strokeWidth=2;" vertex="1" parent="1">
          <mxGeometry x="445" y="461" width="240" height="43" as="geometry" />
        </mxCell>
        <mxCell id="dHt0ZBcLm3qYKbVKPIH8-33" value="" style="edgeStyle=orthogonalEdgeStyle;rounded=0;orthogonalLoop=1;jettySize=auto;html=1;strokeWidth=2;" edge="1" parent="1" source="dHt0ZBcLm3qYKbVKPIH8-11" target="dHt0ZBcLm3qYKbVKPIH8-12">
          <mxGeometry relative="1" as="geometry" />
        </mxCell>
        <mxCell id="dHt0ZBcLm3qYKbVKPIH8-11" value="&lt;font face=&quot;Times New Roman&quot;&gt;&lt;span style=&quot;font-size: 18px;&quot;&gt;Calculate the TKEO&lt;/span&gt;&lt;/font&gt;" style="rounded=0;whiteSpace=wrap;html=1;strokeWidth=2;" vertex="1" parent="1">
          <mxGeometry x="445" y="519" width="240" height="21" as="geometry" />
        </mxCell>
        <mxCell id="dHt0ZBcLm3qYKbVKPIH8-34" style="edgeStyle=orthogonalEdgeStyle;rounded=0;orthogonalLoop=1;jettySize=auto;html=1;strokeWidth=2;" edge="1" parent="1" source="dHt0ZBcLm3qYKbVKPIH8-12" target="dHt0ZBcLm3qYKbVKPIH8-13">
          <mxGeometry relative="1" as="geometry" />
        </mxCell>
        <mxCell id="dHt0ZBcLm3qYKbVKPIH8-12" value="&lt;font face=&quot;Times New Roman&quot;&gt;&lt;span style=&quot;font-size: 18px;&quot;&gt;Estimate the time of wave front from the energy peak&lt;/span&gt;&lt;/font&gt;" style="rounded=0;whiteSpace=wrap;html=1;strokeWidth=2;" vertex="1" parent="1">
          <mxGeometry x="445" y="555" width="240" height="45" as="geometry" />
        </mxCell>
        <mxCell id="dHt0ZBcLm3qYKbVKPIH8-36" style="edgeStyle=orthogonalEdgeStyle;rounded=0;orthogonalLoop=1;jettySize=auto;html=1;exitX=0.5;exitY=1;exitDx=0;exitDy=0;entryX=0.5;entryY=0;entryDx=0;entryDy=0;strokeWidth=2;" edge="1" parent="1" source="dHt0ZBcLm3qYKbVKPIH8-13" target="dHt0ZBcLm3qYKbVKPIH8-15">
          <mxGeometry relative="1" as="geometry" />
        </mxCell>
        <mxCell id="dHt0ZBcLm3qYKbVKPIH8-13" value="&lt;font face=&quot;Times New Roman&quot;&gt;&lt;span style=&quot;font-size: 18px;&quot;&gt;Calculate the fault location&lt;/span&gt;&lt;/font&gt;" style="rounded=0;whiteSpace=wrap;html=1;strokeWidth=2;" vertex="1" parent="1">
          <mxGeometry x="445" y="615" width="240" height="19" as="geometry" />
        </mxCell>
        <mxCell id="dHt0ZBcLm3qYKbVKPIH8-15" value="&lt;font style=&quot;font-size: 18px;&quot; face=&quot;Times New Roman&quot;&gt;End&lt;/font&gt;" style="ellipse;whiteSpace=wrap;html=1;strokeWidth=2;" vertex="1" parent="1">
          <mxGeometry x="527" y="649" width="76" height="20" as="geometry" />
        </mxCell>
        <mxCell id="dHt0ZBcLm3qYKbVKPIH8-27" value="" style="edgeStyle=orthogonalEdgeStyle;rounded=0;orthogonalLoop=1;jettySize=auto;html=1;strokeWidth=2;" edge="1" parent="1" source="dHt0ZBcLm3qYKbVKPIH8-16" target="dHt0ZBcLm3qYKbVKPIH8-7">
          <mxGeometry relative="1" as="geometry">
            <Array as="points">
              <mxPoint x="396" y="360" />
            </Array>
          </mxGeometry>
        </mxCell>
        <mxCell id="dHt0ZBcLm3qYKbVKPIH8-37" value="&lt;font style=&quot;font-size: 18px;&quot; face=&quot;Times New Roman&quot;&gt;Yes&lt;/font&gt;" style="edgeLabel;html=1;align=center;verticalAlign=middle;resizable=0;points=[];" vertex="1" connectable="0" parent="dHt0ZBcLm3qYKbVKPIH8-27">
          <mxGeometry x="-0.1361" y="-2" relative="1" as="geometry">
            <mxPoint as="offset" />
          </mxGeometry>
        </mxCell>
        <mxCell id="dHt0ZBcLm3qYKbVKPIH8-28" style="edgeStyle=orthogonalEdgeStyle;rounded=0;orthogonalLoop=1;jettySize=auto;html=1;exitX=1;exitY=0.5;exitDx=0;exitDy=0;entryX=0.5;entryY=0;entryDx=0;entryDy=0;strokeWidth=2;" edge="1" parent="1" source="dHt0ZBcLm3qYKbVKPIH8-16" target="dHt0ZBcLm3qYKbVKPIH8-8">
          <mxGeometry relative="1" as="geometry" />
        </mxCell>
        <mxCell id="dHt0ZBcLm3qYKbVKPIH8-38" value="&lt;font face=&quot;Times New Roman&quot; style=&quot;font-size: 18px;&quot;&gt;No&lt;/font&gt;" style="edgeLabel;html=1;align=center;verticalAlign=middle;resizable=0;points=[];" vertex="1" connectable="0" parent="dHt0ZBcLm3qYKbVKPIH8-28">
          <mxGeometry x="-0.2174" y="-1" relative="1" as="geometry">
            <mxPoint y="-1" as="offset" />
          </mxGeometry>
        </mxCell>
        <mxCell id="dHt0ZBcLm3qYKbVKPIH8-16" value="&lt;font style=&quot;font-size: 18px;&quot; face=&quot;Times New Roman&quot;&gt;Frequency ≥&amp;nbsp;3MHz&lt;/font&gt;" style="rhombus;whiteSpace=wrap;html=1;strokeWidth=2;" vertex="1" parent="1">
          <mxGeometry x="461" y="335" width="198" height="50" as="geometry" />
        </mxCell>
      </root>
    </mxGraphModel>
  </diagram>
</mxfile>
